<?xml version="1.0" encoding="UTF-8" standalone="no"?>
<!DOCTYPE svg PUBLIC "-//W3C//DTD SVG 1.1//EN" "http://www.w3.org/Graphics/SVG/1.1/DTD/svg11.dtd">
<svg width="100%" height="100%" viewBox="0 0 512 512" version="1.1" xmlns="http://www.w3.org/2000/svg" xmlns:xlink="http://www.w3.org/1999/xlink" xml:space="preserve" xmlns:serif="http://www.serif.com/" style="fill-rule:evenodd;clip-rule:evenodd;stroke-linecap:round;stroke-linejoin:round;stroke-miterlimit:1.5;">
    <g id="base">
        <path d="M410.326,369.484L438.018,52.262C435.418,79.733 354.922,101.78 256,101.78C157.078,101.78 76.582,79.733 73.982,52.262L101.674,369.484C39.912,383.956 0,406.899 0,432.73C0,476.51 114.615,512 256,512C397.385,512 512,476.51 512,432.73C512,406.899 472.088,383.956 410.326,369.484Z" style="fill:rgb(131,131,131);fill-rule:nonzero;"/>
        <ellipse cx="256" cy="50.89" rx="182.086" ry="50.89" style="fill:rgb(90,90,90);"/>
        <path d="M256,493.419C124.767,493.419 16.617,462.841 1.759,423.44C0.61,426.488 0,429.587 0,432.731C0,476.51 114.615,512 256,512C397.385,512 512,476.51 512,432.731C512,429.588 511.39,426.489 510.241,423.441C495.384,462.841 387.233,493.419 256,493.419Z" style="fill:rgb(112,112,112);fill-rule:nonzero;"/>
    </g>
    <g>
        <g transform="matrix(1,0,0,1,9.74703,63.8636)">
            <path d="M95.859,332.742C167.661,328.517 231.92,297.824 262.097,243.495L226.125,208.014C179.381,261.03 157.043,270.037 93.315,279.834" style="fill:rgb(145,220,71);stroke:rgb(99,170,50);stroke-width:1px;"/>
        </g>
        <g transform="matrix(1,0,0,1,9.74703,63.8636)">
            <path d="M95.859,332.742C167.661,328.517 231.92,297.824 262.097,243.495L254.856,236.505C211.92,293.413 164.646,314.193 95.927,319.708" style="fill:rgb(99,170,50);stroke:rgb(99,170,50);stroke-width:1px;"/>
        </g>
    </g>
    <g>
        <path d="M408.089,398.469C289.878,367.461 183.177,264.65 83.001,148.264L75.009,58.447C172.496,190.654 290.648,293.167 412.345,342.795L408.089,398.469Z" style="fill:rgb(145,220,71);stroke:rgb(99,170,50);stroke-width:1px;"/>
        <g transform="matrix(1,0,0,1,41.8247,-52.3078)">
            <path d="M362.933,448.225C243.597,418.466 141.258,316.963 41.082,200.577L38.676,175.304C105.744,274.227 238.22,395.025 365.01,438.825L362.933,448.225Z" style="fill:rgb(99,170,50);stroke:rgb(99,170,50);stroke-width:1px;"/>
        </g>
    </g>
    <g>
        <path d="M256,376.225C175.168,376.225 108.492,359.294 98.876,337.43L103.984,395.947C103.984,419.412 172.044,438.433 256,438.433C339.956,438.433 408.016,419.411 408.016,395.947L413.124,337.43C403.508,359.294 336.832,376.225 256,376.225Z" style="fill:rgb(145,220,71);fill-rule:nonzero;stroke:rgb(99,170,50);stroke-width:1px;stroke-linecap:butt;stroke-miterlimit:2;"/>
        <path d="M256,376.225C175.168,376.225 108.492,359.294 98.876,337.43L100.266,353.452C119.339,373.821 172.044,389.433 256,389.433C339.956,389.433 391.915,372.378 411.899,354.59L413.124,337.43C403.508,359.294 336.832,376.225 256,376.225Z" style="fill:rgb(99,170,50);fill-rule:nonzero;stroke:rgb(99,170,50);stroke-width:1px;stroke-linecap:butt;stroke-miterlimit:2;"/>
    </g>
</svg>
